<?xml version="1.0" encoding="utf-8"?>
<!-- Generator: Adobe Illustrator 16.0.4, SVG Export Plug-In . SVG Version: 6.00 Build 0)  -->
<!DOCTYPE svg PUBLIC "-//W3C//DTD SVG 1.1//EN" "http://www.w3.org/Graphics/SVG/1.1/DTD/svg11.dtd">
<svg version="1.1" id="Layer_1" xmlns="http://www.w3.org/2000/svg" xmlns:xlink="http://www.w3.org/1999/xlink" x="0px" y="0px"
	 width="136px" height="136px" viewBox="0 0 136 136" enable-background="new 0 0 136 136" xml:space="preserve">
<g>
	<polygon fill="#0081C2" points="68,0.624 5.042,31.551 5.042,68 5.042,104.449 68,135.376 130.958,104.449 130.958,68 
		130.958,31.551 	"/>
	<path fill="#FFFFFF" d="M115.806,91.356c-0.198-1.35-0.75-2.625-1.473-3.659c-0.725-1.038-1.591-1.879-2.498-2.564
		c-1.823-1.367-3.8-2.208-5.804-2.731c-0.163-0.043-0.326-0.083-0.491-0.122c0.503-0.656,0.96-1.325,1.383-2.021
		c0.854-1.418,1.57-2.934,2.053-4.559c0.472-1.622,0.693-3.37,0.482-5.093c-0.203-1.721-0.857-3.372-1.836-4.696
		c-0.482-0.668-1.028-1.268-1.613-1.805l-0.446-0.391c-0.153-0.125-0.306-0.247-0.462-0.368l-0.479-0.352l-0.466-0.314
		c-0.21-0.141-0.496-0.124-0.687,0.057c-0.222,0.209-0.23,0.558-0.021,0.779l0.386,0.408l0.348,0.399l0.336,0.415l0.318,0.422
		c0.409,0.571,0.758,1.169,1.031,1.784c0.55,1.231,0.78,2.521,0.686,3.777c-0.091,1.259-0.491,2.485-1.082,3.64
		c-0.585,1.156-1.358,2.248-2.238,3.249c-0.438,0.5-0.904,0.981-1.383,1.423c-0.119,0.11-0.239,0.217-0.357,0.316
		c-0.058,0.049-0.116,0.099-0.167,0.138l-0.019,0.014l-0.006,0.003c-0.009,0.007,0.074-0.071,0.032-0.033
		c0-0.001,0.001-0.002,0.001-0.003c0.005-0.006-0.005,0.002-0.008,0.003l-0.073,0.048c-0.224,0.146-0.493,0.312-0.762,0.461
		c-1.088,0.604-2.27,1.084-3.449,1.376c-1.184,0.297-2.368,0.409-3.513,0.356c-1.147-0.052-2.255-0.296-3.319-0.682
		c-0.048-0.017-0.096-0.036-0.144-0.055c0.222-0.032,0.443-0.068,0.668-0.113c0.699-0.141,1.416-0.347,2.127-0.644
		c0.708-0.296,1.413-0.686,2.053-1.173c0.643-0.484,1.22-1.058,1.701-1.676c0.481-0.617,0.869-1.274,1.164-1.931
		c0.299-0.656,0.515-1.311,0.679-1.951c0.155-0.638,0.259-1.264,0.32-1.872c0.122-1.219,0.097-2.369,0.008-3.479L98.75,67.72
		l-0.048-0.43c-0.017-0.14-0.031-0.293-0.05-0.42l-0.056-0.363l-0.028-0.182l-0.014-0.09l-0.007-0.045l-0.003-0.023l-0.002-0.011
		c0,0.005-0.007-0.083-0.004-0.051l-0.057-0.348l-0.111-0.696c-0.147-0.929-0.272-1.857-0.374-2.787
		c-0.06-0.466-0.087-0.928-0.132-1.394c-0.039-0.465-0.06-0.927-0.093-1.393c-0.037-0.924-0.067-1.854-0.034-2.772
		c0.005-0.462,0.045-0.916,0.066-1.375c0.042-0.452,0.073-0.912,0.139-1.36c0.117-0.9,0.286-1.79,0.534-2.646
		c0.247-0.856,0.577-1.677,1.004-2.431c0.42-0.759,0.954-1.442,1.611-1.972c0.327-0.268,0.688-0.488,1.074-0.653
		c0.192-0.083,0.392-0.153,0.596-0.207c0.102-0.029,0.189-0.042,0.287-0.066c0.107-0.018,0.24-0.025,0.359-0.039l0.016-0.001
		c0.251-0.028,0.457-0.227,0.485-0.488c0.032-0.302-0.187-0.573-0.489-0.605c-0.125-0.013-0.236-0.032-0.373-0.041
		c-0.146-0.003-0.302-0.011-0.442-0.004c-0.28,0.01-0.561,0.042-0.837,0.095c-0.551,0.108-1.086,0.301-1.583,0.558
		c-0.999,0.51-1.859,1.246-2.574,2.074c-0.716,0.831-1.296,1.754-1.782,2.708c-0.484,0.955-0.873,1.943-1.2,2.944
		c-0.172,0.5-0.305,1.004-0.449,1.51c-0.124,0.505-0.252,1.015-0.351,1.524c-0.217,1.02-0.365,2.042-0.503,3.067
		c-0.122,1.023-0.212,2.049-0.27,3.072c-0.059,1.023-0.092,2.045-0.1,3.065l-0.001,0.765v0.383c0.003,0.04-0.004-0.04-0.003-0.028
		v0.012v0.023l-0.001,0.046v0.092l-0.001,0.184l-0.003,0.367c-0.001,0.117-0.01,0.207-0.014,0.312l-0.017,0.302l-0.024,0.315
		c-0.065,0.842-0.187,1.65-0.385,2.36c-0.099,0.354-0.215,0.682-0.339,0.98c-0.13,0.29-0.271,0.548-0.42,0.76
		c-0.302,0.43-0.607,0.644-0.927,0.782c-0.318,0.136-0.714,0.227-1.252,0.244c-0.532,0.019-1.178-0.045-1.865-0.193
		c-0.098-0.02-0.196-0.041-0.296-0.064c0,0-2.507-0.884-1.683-3.753c0.559-1.039,1.582-2.109,3.469-2.388
		c0,0,4.025-31.168-21.196-51.203c-0.016-0.012-0.033,0-0.033,0C42.746,35.774,46.771,66.942,46.771,66.942
		c2.012,0.297,3.044,1.495,3.574,2.594c0.604,2.521-1.424,3.423-1.704,3.534c-0.117,0.028-0.233,0.055-0.347,0.077
		c-0.688,0.148-1.334,0.212-1.866,0.193c-0.537-0.018-0.933-0.108-1.252-0.244c-0.319-0.139-0.625-0.353-0.926-0.782
		c-0.148-0.212-0.29-0.47-0.42-0.76c-0.124-0.299-0.24-0.626-0.339-0.98c-0.197-0.71-0.318-1.519-0.384-2.36l-0.024-0.315
		l-0.016-0.302c-0.005-0.104-0.013-0.194-0.015-0.312l-0.002-0.367l-0.001-0.184l-0.001-0.092v-0.046l0-0.023v-0.012
		c0.001-0.012-0.006,0.068-0.003,0.028v-0.383l-0.001-0.765c-0.008-1.02-0.04-2.042-0.1-3.065c-0.058-1.023-0.148-2.049-0.27-3.072
		c-0.138-1.025-0.286-2.047-0.503-3.067c-0.097-0.509-0.226-1.019-0.351-1.524c-0.143-0.506-0.277-1.01-0.448-1.51
		c-0.328-1-0.716-1.989-1.201-2.944c-0.485-0.953-1.066-1.876-1.782-2.708c-0.714-0.828-1.575-1.564-2.575-2.074
		c-0.497-0.257-1.031-0.449-1.583-0.558c-0.276-0.052-0.556-0.085-0.837-0.095c-0.14-0.007-0.297,0.001-0.442,0.004
		c-0.137,0.009-0.248,0.027-0.373,0.041c-0.302,0.032-0.521,0.303-0.489,0.605c0.027,0.261,0.234,0.46,0.485,0.488l0.016,0.001
		c0.119,0.014,0.252,0.021,0.359,0.039c0.098,0.024,0.186,0.037,0.287,0.066c0.204,0.054,0.402,0.123,0.595,0.207
		c0.386,0.165,0.748,0.385,1.074,0.653c0.658,0.53,1.191,1.213,1.611,1.972c0.427,0.753,0.756,1.575,1.004,2.431
		c0.248,0.856,0.417,1.746,0.534,2.646c0.066,0.448,0.098,0.908,0.139,1.36c0.021,0.46,0.062,0.913,0.065,1.375
		c0.034,0.917,0.004,1.848-0.032,2.772c-0.034,0.466-0.055,0.928-0.094,1.393c-0.045,0.466-0.072,0.928-0.132,1.394
		c-0.101,0.93-0.226,1.858-0.374,2.787l-0.112,0.696l-0.055,0.348c0.002-0.032-0.005,0.056-0.005,0.051l-0.001,0.011l-0.003,0.023
		l-0.007,0.045l-0.015,0.09l-0.028,0.182l-0.055,0.363c-0.018,0.127-0.034,0.281-0.05,0.42l-0.047,0.43l-0.036,0.417
		c-0.089,1.109-0.116,2.26,0.007,3.479c0.062,0.608,0.165,1.234,0.321,1.872c0.164,0.641,0.379,1.295,0.677,1.951
		c0.296,0.656,0.684,1.313,1.166,1.931c0.48,0.618,1.058,1.191,1.7,1.676c0.641,0.487,1.345,0.877,2.054,1.173
		c0.71,0.297,1.427,0.503,2.126,0.644c0.225,0.045,0.448,0.081,0.668,0.113c-0.048,0.019-0.096,0.038-0.144,0.055
		c-1.064,0.386-2.172,0.63-3.318,0.682c-1.145,0.053-2.33-0.06-3.512-0.356c-1.181-0.292-2.361-0.772-3.451-1.376
		c-0.268-0.149-0.537-0.314-0.761-0.461l-0.073-0.048c-0.003-0.001-0.013-0.009-0.009-0.003c0,0.001,0.002,0.002,0.002,0.003
		c-0.042-0.038,0.041,0.04,0.032,0.033L34.693,79.5l-0.018-0.014c-0.05-0.039-0.109-0.089-0.167-0.138
		c-0.117-0.1-0.238-0.206-0.357-0.316c-0.479-0.441-0.945-0.923-1.383-1.423c-0.88-1.001-1.653-2.093-2.238-3.249
		c-0.591-1.154-0.992-2.381-1.083-3.64c-0.094-1.256,0.136-2.546,0.686-3.777c0.274-0.615,0.623-1.213,1.032-1.784l0.318-0.422
		l0.336-0.415l0.348-0.399l0.386-0.408c0.209-0.221,0.2-0.57-0.021-0.779c-0.191-0.181-0.478-0.198-0.688-0.057l-0.466,0.314
		l-0.479,0.352c-0.156,0.121-0.308,0.244-0.461,0.368l-0.446,0.391c-0.585,0.537-1.131,1.137-1.614,1.805
		c-0.979,1.325-1.632,2.976-1.836,4.696c-0.211,1.723,0.01,3.471,0.483,5.093c0.482,1.625,1.198,3.141,2.052,4.559
		c0.423,0.696,0.881,1.366,1.384,2.023c-0.165,0.038-0.329,0.076-0.493,0.119c-2.003,0.523-3.98,1.364-5.803,2.731
		c-0.906,0.686-1.773,1.526-2.498,2.564c-0.722,1.034-1.274,2.31-1.472,3.659c-0.21,1.351-0.023,2.713,0.368,3.873
		c0.202,0.578,0.449,1.116,0.725,1.614c0.283,0.489,0.583,0.957,0.912,1.37c0.323,0.425,0.668,0.807,1.017,1.176l0.285,0.284
		l0.143,0.142c0.048,0.048,0.097,0.096,0.133,0.127l0.516,0.46c0.704,0.607,1.439,1.171,2.189,1.699
		c1.509,1.047,3.094,1.927,4.694,2.674c1.465,0.688,2.944,1.26,4.401,1.805c0.008,0.021,0.016,0.041,0.024,0.062l0.116,0.273
		c0.042,0.089,0.091,0.174,0.138,0.262c0.094,0.173,0.191,0.344,0.291,0.514l0.075,0.126l0.084,0.118l0.171,0.236
		c0.116,0.154,0.231,0.312,0.352,0.46c1.002,1.167,2.269,1.97,3.559,2.444c1.295,0.477,2.624,0.632,3.885,0.572
		c0.157-0.008,0.316-0.012,0.473-0.025l0.462-0.06l0.46-0.064c0.152-0.023,0.3-0.062,0.449-0.095l0.445-0.102
		c0.075-0.02,0.146-0.032,0.224-0.056l0.236-0.072l0.467-0.149l0.232-0.077c0.077-0.026,0.16-0.054,0.207-0.077l0.665-0.287
		l0.083-0.036c0.047-0.019-0.077,0.027,0.111-0.044l0.018-0.008l0.037-0.017l0.146-0.068l0.292-0.137
		c0.194-0.097,0.393-0.179,0.591-0.262c0.199-0.083,0.397-0.172,0.601-0.242c0.807-0.313,1.638-0.561,2.482-0.744
		c1.686-0.365,3.441-0.504,5.126-0.254c0.84,0.125,1.66,0.346,2.416,0.68c0.755,0.336,1.451,0.782,2.004,1.363
		c0.068,0.074,0.141,0.145,0.208,0.221l0.185,0.237l0.094,0.119l0.081,0.127l0.163,0.256c0.188,0.357,0.366,0.731,0.465,1.138
		c0.025,0.102,0.06,0.202,0.079,0.306l0.052,0.315l0.027,0.158c0.006,0.053,0.007,0.108,0.012,0.161l0.024,0.325
		c0.013,0.217-0.002,0.422,0.001,0.638c-0.02,0.233-0.053,0.479-0.078,0.718v0.006c-0.033,0.303,0.186,0.573,0.488,0.605
		c0.268,0.028,0.511-0.141,0.585-0.391c0.069-0.233,0.143-0.457,0.209-0.699c0.052-0.262,0.119-0.533,0.152-0.798l0.044-0.397
		c0.007-0.066,0.015-0.133,0.019-0.2l0.003-0.202l0.002-0.406c-0.001-0.137-0.021-0.272-0.031-0.408
		c-0.039-0.549-0.179-1.092-0.355-1.625l-0.16-0.39l-0.083-0.196l-0.098-0.187l-0.201-0.375c-0.072-0.121-0.152-0.235-0.23-0.354
		c-0.149-0.243-0.333-0.454-0.509-0.676c-0.086-0.115-0.188-0.208-0.284-0.312c-0.098-0.101-0.192-0.207-0.294-0.303
		c-0.413-0.376-0.849-0.731-1.315-1.025c-0.927-0.604-1.934-1.054-2.966-1.381c-2.069-0.647-4.235-0.837-6.363-0.692
		c-1.065,0.071-2.126,0.222-3.168,0.456c-0.263,0.051-0.52,0.121-0.779,0.187c-0.26,0.064-0.52,0.131-0.774,0.212l-0.384,0.117
		l-0.192,0.059l-0.048,0.016l-0.024,0.007c0.173-0.065,0.036-0.015,0.069-0.027l-0.087,0.023l-0.699,0.193
		c-0.065,0.021-0.1,0.021-0.139,0.025l-0.118,0.015l-0.232,0.033l-0.115,0.018c-0.039,0.006-0.088,0.007-0.132,0.011l-0.267,0.019
		c-0.088,0.005-0.177,0.019-0.265,0.018l-0.26-0.006l-0.258-0.002c-0.084-0.007-0.167-0.021-0.25-0.029
		c-0.663-0.068-1.267-0.261-1.748-0.533c-0.482-0.271-0.83-0.625-1.027-0.971c-0.186-0.357-0.229-0.689-0.195-1.049
		c0.04-0.359,0.172-0.778,0.445-1.244c0.273-0.464,0.667-0.956,1.156-1.434c1.011-0.947,2.338-1.83,3.81-2.565l0.271-0.142
		l0.287-0.131l0.573-0.26c0.372-0.183,0.784-0.325,1.175-0.489l1.349-0.554l0.67-0.275l0.083-0.033l0.095-0.045l0.193-0.088l0,0
		l0.001-0.001l0.384-0.179c0.469-0.219,0.944-0.438,1.385-0.672c2.976-1.35,9.206-3.832,14.788-3.832s11.812,2.482,14.789,3.832
		c0.439,0.234,0.915,0.453,1.384,0.672l0.386,0.18l0.192,0.088l0.096,0.044l0.083,0.034l0.67,0.275l1.349,0.554
		c0.392,0.164,0.804,0.308,1.176,0.489l0.572,0.26l0.286,0.131l0.271,0.142c1.472,0.735,2.799,1.618,3.811,2.565
		c0.489,0.478,0.883,0.97,1.156,1.434c0.273,0.466,0.404,0.885,0.444,1.244c0.035,0.359-0.009,0.691-0.194,1.049
		c-0.197,0.346-0.545,0.699-1.027,0.971c-0.48,0.272-1.085,0.465-1.748,0.533c-0.083,0.009-0.166,0.022-0.25,0.029l-0.258,0.002
		l-0.261,0.006c-0.086,0.001-0.176-0.013-0.264-0.018l-0.268-0.019c-0.044-0.004-0.093-0.005-0.131-0.011l-0.115-0.018l-0.231-0.033
		l-0.118-0.015c-0.039-0.004-0.073-0.005-0.139-0.025l-0.699-0.193l-0.087-0.023c0.033,0.013-0.105-0.038,0.068,0.027l-0.024-0.007
		l-0.048-0.016l-0.192-0.059l-0.384-0.117c-0.255-0.081-0.514-0.147-0.773-0.212c-0.26-0.065-0.517-0.136-0.78-0.187
		c-1.042-0.234-2.103-0.385-3.168-0.456c-2.129-0.145-4.295,0.046-6.363,0.692c-1.032,0.327-2.039,0.776-2.966,1.381
		c-0.467,0.294-0.903,0.649-1.315,1.025c-0.102,0.096-0.196,0.202-0.294,0.303c-0.095,0.104-0.197,0.197-0.283,0.312
		c-0.176,0.222-0.36,0.433-0.51,0.676c-0.078,0.119-0.157,0.233-0.229,0.354l-0.201,0.375l-0.098,0.187l-0.082,0.196l-0.161,0.39
		c-0.176,0.533-0.315,1.076-0.354,1.625c-0.011,0.136-0.03,0.271-0.03,0.408l0.002,0.406l0.003,0.202
		c0.003,0.067,0.012,0.134,0.019,0.2l0.044,0.397c0.033,0.265,0.102,0.536,0.152,0.798c0.066,0.242,0.141,0.466,0.209,0.699
		c0.075,0.25,0.317,0.419,0.586,0.391c0.302-0.032,0.521-0.304,0.488-0.605l-0.001-0.006c-0.025-0.238-0.059-0.484-0.077-0.718
		c0.002-0.216-0.013-0.421,0.001-0.638l0.023-0.325c0.005-0.053,0.006-0.108,0.012-0.161l0.027-0.158l0.051-0.315
		c0.021-0.104,0.055-0.204,0.079-0.306c0.099-0.406,0.277-0.781,0.466-1.138l0.164-0.256l0.079-0.127l0.095-0.119l0.186-0.237
		c0.066-0.075,0.139-0.146,0.207-0.221c0.554-0.581,1.25-1.027,2.004-1.363c0.757-0.334,1.576-0.555,2.417-0.68
		c1.685-0.251,3.44-0.111,5.126,0.254c0.844,0.184,1.675,0.431,2.48,0.744c0.204,0.07,0.402,0.159,0.602,0.242
		s0.397,0.165,0.591,0.262l0.293,0.137l0.146,0.068l0.036,0.017l0.019,0.008c0.188,0.071,0.064,0.025,0.111,0.043l0.083,0.037
		l0.665,0.287c0.046,0.023,0.129,0.051,0.207,0.077l0.231,0.076l0.467,0.15l0.235,0.072c0.078,0.023,0.149,0.036,0.224,0.056
		l0.446,0.102c0.148,0.032,0.296,0.07,0.448,0.095l0.46,0.064l0.463,0.06c0.156,0.014,0.315,0.018,0.474,0.025
		c1.26,0.06,2.589-0.096,3.884-0.572c1.291-0.475,2.558-1.277,3.56-2.444c0.121-0.148,0.236-0.306,0.353-0.46l0.171-0.236
		l0.085-0.118l0.074-0.126c0.099-0.17,0.196-0.341,0.29-0.514c0.047-0.088,0.097-0.173,0.138-0.262l0.115-0.273
		c0.009-0.021,0.016-0.041,0.024-0.062c1.458-0.545,2.937-1.117,4.402-1.805c1.599-0.748,3.184-1.627,4.693-2.674
		c0.749-0.528,1.484-1.092,2.188-1.699l0.516-0.46c0.036-0.031,0.086-0.079,0.134-0.127l0.143-0.142l0.285-0.284
		c0.35-0.369,0.693-0.751,1.017-1.176c0.329-0.413,0.63-0.881,0.912-1.37c0.276-0.498,0.523-1.036,0.726-1.614
		C115.828,94.069,116.015,92.707,115.806,91.356z M42.141,92.472c-0.115,0.079-0.23,0.151-0.344,0.235l-0.34,0.256l-0.676,0.513
		c-0.113,0.083-0.224,0.175-0.334,0.271l-0.331,0.282c-0.219,0.19-0.439,0.373-0.655,0.572l-0.635,0.625
		c-0.105,0.106-0.21,0.208-0.313,0.316l-0.304,0.346c-0.2,0.232-0.402,0.456-0.596,0.699c-0.769,0.98-1.472,2.096-1.983,3.393
		c-0.256,0.647-0.453,1.349-0.571,2.084l-0.071,0.56c-0.002,0.025-0.005,0.052-0.008,0.076c-0.655-0.406-1.296-0.819-1.917-1.249
		c-1.329-0.904-2.557-1.887-3.667-2.951c-0.551-0.534-1.078-1.086-1.567-1.663l-0.364-0.442c-0.039-0.044-0.059-0.075-0.081-0.105
		l-0.066-0.095l-0.134-0.187c-0.188-0.278-0.368-0.554-0.511-0.83c-0.155-0.273-0.264-0.543-0.366-0.802
		c-0.09-0.258-0.152-0.504-0.189-0.731c-0.056-0.456-0.017-0.815,0.11-1.118c0.125-0.302,0.316-0.584,0.617-0.882
		c0.3-0.296,0.7-0.594,1.184-0.852c0.965-0.521,2.201-0.878,3.482-1.043c1.286-0.169,2.63-0.136,3.93,0.06
		c1.303,0.192,2.566,0.566,3.724,1.095c0.291,0.13,0.573,0.273,0.849,0.425l0.408,0.234l0.35,0.181l0.25,0.12l0.242,0.11
		c0.328,0.145,0.67,0.278,1.023,0.399L42.141,92.472z M60.395,70.801c-1.122,0-2.031-0.909-2.031-2.031
		c0-1.121,0.909-2.031,2.031-2.031s2.031,0.91,2.031,2.031C62.426,69.892,61.517,70.801,60.395,70.801z M75.605,70.801
		c-1.122,0-2.031-0.909-2.031-2.031c0-1.121,0.909-2.031,2.031-2.031s2.031,0.91,2.031,2.031
		C77.637,69.892,76.728,70.801,75.605,70.801z M109.88,93.644c-0.037,0.228-0.099,0.474-0.188,0.731
		c-0.102,0.259-0.212,0.528-0.366,0.802c-0.144,0.276-0.324,0.552-0.511,0.83l-0.134,0.187l-0.066,0.095
		c-0.021,0.03-0.042,0.062-0.08,0.105l-0.364,0.442c-0.489,0.577-1.017,1.129-1.567,1.663c-1.109,1.064-2.338,2.047-3.666,2.951
		c-0.621,0.43-1.262,0.843-1.916,1.25c-0.003-0.025-0.006-0.052-0.009-0.077l-0.071-0.56c-0.117-0.735-0.315-1.437-0.571-2.084
		c-0.511-1.297-1.213-2.412-1.982-3.393c-0.193-0.243-0.396-0.467-0.596-0.699l-0.303-0.346c-0.104-0.108-0.209-0.21-0.313-0.316
		l-0.637-0.625c-0.215-0.199-0.436-0.382-0.654-0.572l-0.331-0.282c-0.109-0.096-0.221-0.188-0.334-0.271l-0.676-0.513l-0.34-0.256
		c-0.113-0.084-0.229-0.156-0.344-0.235l-0.147-0.099c0.354-0.121,0.695-0.255,1.023-0.399l0.242-0.11l0.25-0.12l0.35-0.181
		l0.408-0.234c0.276-0.151,0.559-0.295,0.849-0.425c1.158-0.528,2.422-0.902,3.724-1.095c1.301-0.195,2.645-0.229,3.93-0.06
		c1.281,0.165,2.518,0.521,3.482,1.043c0.483,0.258,0.885,0.556,1.183,0.852c0.302,0.298,0.493,0.58,0.617,0.882
		C109.897,92.828,109.937,93.188,109.88,93.644z"/>
</g>
</svg>
