<?xml version="1.0" standalone="no"?>
<!DOCTYPE svg PUBLIC "-//W3C//DTD SVG 1.1//EN" "http://www.w3.org/Graphics/SVG/1.1/DTD/svg11.dtd">
<svg width="100%" height="100%" viewBox="0 0 121 131" version="1.1" xmlns="http://www.w3.org/2000/svg" xmlns:xlink="http://www.w3.org/1999/xlink" xml:space="preserve" style="fill-rule:evenodd;clip-rule:evenodd;stroke-linejoin:round;stroke-miterlimit:1.41421;">
    <g>
        <g>
            <path d="M60.3339,13.2194L108.255,39.57L108.255,92.2712L60.3339,118.622L12.4128,92.2712L12.4128,39.57L60.3339,13.2194Z" style="fill:rgb(135,101,171);"/>
            <path d="M14.2586,51.5884C16.2698,47.1018 36.731,46.7308 51.386,48.7264C62.4011,50.2263 77.3318,52.7499 88.798,57.7273C91.4404,58.8743 98.8509,47.5548 103.945,48.5953C103.41,54.5061 101.491,52.2836 102.782,58.874C104.073,65.4644 103.675,68.2061 108.255,68.8289C110.458,69.1284 112.121,69.3536 113.709,69.2481C113.292,77.8382 113.709,93.6412 113.709,93.6412L100.481,100.805C100.481,100.805 87.8111,92.9506 81.8957,93.3812C75.7891,93.8258 66.8577,94.6678 58.5589,109.201C51.2481,110.779 57.7381,79.8826 58.2252,84.2662C51.5191,82.3842 37.4131,76.8474 27.0309,68.4199C16.9229,60.215 11.4801,57.7866 14.2586,51.5884Z" style="fill:rgb(91,74,141);"/>
            <path d="M14.4904,52.6132C15.219,50.9877 19.1309,49.8094 23.7082,50.0231C26.0949,51.299 30.8121,50.7925 33.8061,50.8215C34.8181,47.1106 36.7779,49.1045 37.672,51.0036C40.3998,50.8454 42.5145,50.8739 44.3793,51.7038C47.2073,53.0379 38.2181,53.2418 40.117,53.6914C51.7477,56.445 52.0238,56.2094 60.5,61.9752C62.8818,63.5953 73.2486,65.1076 77.9061,70.6605C81.1056,68.6533 103.675,68.2061 108.255,68.8289C110.458,69.1284 112.121,69.3536 113.709,69.2481C113.612,71.2488 113.56,73.6408 113.537,76.1333C99.9337,73.7912 98.2268,76.4493 98.0104,82.5079C104.598,80.1147 110.511,86.0628 112.208,89.0055C112.257,91.8524 113.709,93.6412 113.709,93.6412L100.481,100.805C100.481,100.805 87.8111,92.9506 81.8957,93.3812C75.7891,93.8258 66.8577,94.6678 58.5589,109.201C51.2481,110.779 57.7381,79.8826 58.2252,84.2662C51.5191,82.3842 37.4131,76.8474 27.0309,68.4199C16.9229,60.215 11.7118,58.8114 14.4904,52.6132Z" style="fill:rgb(197,149,196);"/>
            <path d="M28.0305,64.9002C28.4633,60.4974 36.0601,59.965 43.4064,61.6564C47.6155,62.6255 31.5526,60.014 28.0305,64.9002Z" style="fill:rgb(91,74,141);"/>
            <path d="M60.5,130.421L1.81095,98.1173L1.81095,33.0648L60.5,0.761194L119.189,33.0648L119.189,98.1173L60.5,130.421ZM60.5,117.91L108.228,91.639L108.228,39.5431L60.5,13.2725L12.7716,39.5431L12.7716,91.639L60.5,117.91Z" style="fill:rgb(197,149,196);"/>
        </g>
    </g>
</svg>
