<?xml version="1.0" standalone="no"?>
<!DOCTYPE svg PUBLIC "-//W3C//DTD SVG 1.1//EN" "http://www.w3.org/Graphics/SVG/1.1/DTD/svg11.dtd">
<svg width="100%" height="100%" viewBox="0 0 121 131" version="1.1" xmlns="http://www.w3.org/2000/svg" xmlns:xlink="http://www.w3.org/1999/xlink" xml:space="preserve" style="fill-rule:evenodd;clip-rule:evenodd;stroke-linejoin:round;stroke-miterlimit:1.41421;">
    <g>
        <path d="M60.5,7.07159L112.895,36.2339L112.895,94.5584L60.5,123.721L8.10546,94.5584L8.10546,36.2339L60.5,7.07159Z" style="fill:rgb(221,173,41);"/>
        <path id="Tentacle Shadow" d="M58.2745,35.5452C62.681,34.2326 67.6482,33.3328 73.2959,32.8956C74.7461,24.4252 77.072,20.0142 85.2266,22.6547C77.9417,20.2958 75.9037,24.4942 74.9663,32.7811C74.403,32.8148 73.8462,32.853 73.2959,32.8956C73.2094,33.4007 73.1261,33.9202 73.0448,34.4535C67.4063,35.6358 62.2656,37.033 57.5433,39.4952C55.0333,52.4189 50.2039,71.1382 38.4393,98.1574C35.0028,106.05 42.082,103.389 44.2366,101.429C70.0434,77.9572 70.6452,50.1946 73.0448,34.4535C73.6344,34.3299 74.2295,34.2086 74.8301,34.0887C74.873,33.6423 74.9182,33.2063 74.9663,32.7811C77.3903,32.6358 79.936,32.5726 82.6122,32.5954C79.9182,33.1159 77.3264,33.5904 74.8301,34.0887C73.3159,49.8583 74.7183,78.6445 54.3431,105.744C64.4383,98.1837 95.9423,73.9439 108.744,95.0233C102.643,90.2902 93.054,79.7564 53.3844,116.534L44.7814,119.128C44.7814,119.128 30.0371,112.857 28.8097,112.339C25.0102,110.738 -3.04555,94.1804 5.00828,87.4771C17.6512,46.9984 5.3866,48.1421 13.7412,24.6541C12.8346,32.916 18.7783,36.029 14.7526,79.8614C14.4645,82.9983 17.6155,83.7124 18.7616,81.0361C27.5653,60.4784 35.1937,43.6919 55.5152,36.4463C59.0063,20.814 57.1568,15.1313 66.1514,12.7749C60.5973,15.1312 60.8088,21.182 58.2745,35.5452C57.3293,35.8268 54.7689,39.6504 54.3008,41.4062C44.7264,47.7584 36.9369,59.7521 30.1833,85.4062C30.6597,91.4654 31.9844,91.0137 34.5875,86.5084C46.0726,66.6303 51.4545,52.0829 54.3008,41.4062" style="fill:rgb(197,145,38);"/>
        <path d="M57.9231,39.3681L57.8865,39.5466C54.8879,54.1285 49.5805,74.3725 36.9252,99.6447C33.6808,106.124 35.8353,110.185 41.2046,106.07C71.3453,82.9685 71.4887,51.9707 73.5242,34.578C68.1009,35.7103 62.8612,37.0668 57.9231,39.3681ZM55.3341,36.2116C54.9068,37.8644 54.4203,39.635 53.8551,41.5353C42.4893,48.4257 33.0306,61.851 27.0847,91.6209C25.4463,98.2448 25.6225,99.9561 30.3461,93.4265C44.0417,69.5188 50.41,53.1183 53.8551,41.5353L55.3341,36.2116M55.3341,36.2116C56.8548,30.3296 57.6253,25.9393 58.5223,22.5056C60.3181,15.6307 59.9157,10.8018 68.937,12.7749C62.3532,11.3349 61.8285,19.1651 58.7526,35.1824C63.1313,34.015 68.0839,33.2391 73.7385,32.8603C74.989,23.5111 77.1994,18.7929 86.2266,22.6547C78.4316,20.4199 76.5277,24.6 75.8918,32.7369C78.336,32.6197 80.9063,32.5724 83.6122,32.5954C80.9785,33.125 78.3695,33.6071 75.7975,34.1166C74.7772,51.2397 77.8069,83.6358 47.947,111.664C56.9366,112.46 95.0122,71.4126 109.744,95.0233C103.643,90.2902 94.054,79.7564 54.3844,116.534C54.3844,116.534 31.8435,113.197 29.8097,112.339C26.0102,110.738 -2.04555,94.1804 6.00828,87.4771C18.6512,46.9984 6.3866,48.1421 14.7412,24.6541C13.8192,33.056 19.6375,39.7422 14.4417,82.5841C13.4589,90.6871 16.685,90.4734 19.7616,82.2046C28.638,58.3483 35.803,42.8099 55.3341,36.2116" style="fill:rgb(255,209,68);"/>
        <path d="M60.5,130.015L2.60546,97.7917L2.60546,33.0006L60.5,0.777055L118.395,33.0006L118.395,97.7917L60.5,130.015ZM60.5,117.426L107.395,91.3251L107.395,39.4671L60.5,13.3661L13.6055,39.4671L13.6055,91.3251L60.5,117.426Z" style="fill:rgb(255,209,68);"/>
    </g>
</svg>
