<?xml version="1.0" standalone="no"?>
<!DOCTYPE svg PUBLIC "-//W3C//DTD SVG 1.1//EN" "http://www.w3.org/Graphics/SVG/1.1/DTD/svg11.dtd">
<svg width="100%" height="100%" viewBox="0 0 121 131" version="1.1" xmlns="http://www.w3.org/2000/svg" xmlns:xlink="http://www.w3.org/1999/xlink" xml:space="preserve" style="fill-rule:evenodd;clip-rule:evenodd;stroke-linejoin:round;stroke-miterlimit:1.41421;">
    <g>
        <g>
            <path d="M61.0833,7.76354L111.401,35.9602L111.401,92.3534L61.0833,120.55L10.766,92.3534L10.766,35.9602L61.0833,7.76354Z" style="fill:rgb(207,118,40);"/>
            <path d="M68.341,75.2544L64.9363,73.2525L65.0457,77.6537L62.2539,75.6899L62.1128,79.4259L58.9771,78.6174L59.46,82.4862L55.9252,81.6436L56.7411,85.0899L53.4015,84.6302L51.9933,89.5302C51.9933,89.5302 70.5852,89.3133 72.3074,94.9124C73.4606,98.6616 77.2045,104.66 67.3337,104.531C57.4629,104.401 55.5534,100.262 41.7908,106.002C28.0283,111.742 57.2026,108.622 34.809,111.642C10.2555,99.6891 8.10546,95.1878 8.10546,95.1878L4.41652,69.5937L11.9172,71.1944L8.10546,70.6244C8.10546,70.6244 26.9779,74.3752 29.3291,73.2647C30.9909,62.023 43.3826,61.0534 43.3826,61.0534C40.9765,42.872 49.9719,22.4751 71.2559,22.4203C79.3914,22.3993 87.3383,28.798 87.3383,28.798C95.4288,46.5106 78.4901,54.4325 78.4901,54.4325C71.7192,54.6722 67.0581,53.0132 67.0581,53.0132C70.4085,63.1748 68.341,75.2544 68.341,75.2544Z" style="fill:rgb(180,94,39);"/>
            <path d="M68.341,75.2544L64.9363,73.2525L65.0457,77.6537L62.2539,75.6899L62.1128,79.4259L58.9771,78.6174L59.46,82.4862L55.9252,81.6436L56.7411,85.0899L53.4015,84.6302L51.9933,89.5302C51.9933,89.5302 70.5852,89.3133 72.3074,94.9124C73.4606,98.6616 77.2045,104.66 67.3337,104.531C57.4629,104.401 55.5534,100.262 41.7908,106.002C28.0283,111.742 30.8984,103.894 30.8984,103.894C34.3843,102.41 35.4283,86.4518 43.7002,81.354C29.8485,83.162 35.358,63.3407 45.7805,68.4338C35.3412,46.2816 52.3281,19.7251 71.2066,21.3378C83.5713,22.394 87.3383,28.798 87.3383,28.798C95.4288,46.5106 78.4901,54.4325 78.4901,54.4325C74.5426,54.5723 70.7893,54.2356 68.7816,53.7896C68.7664,53.7862 64.7927,51.289 63.5968,47.1276C62.5661,43.5413 63.6485,37.8833 65.1529,36.6994C69.2628,33.4652 72.9165,33.8401 75.0132,34.941C77.9446,36.4803 77.2753,39.7092 75.6394,40.5761C73.1998,41.8688 70.1195,37.1472 69.0095,42.8331C68.493,45.4788 70.1578,48.0619 71.5779,48.4415C77.4384,50.0082 81.5231,46.1346 82.8311,42.4762C86.2492,32.9157 77.9496,29.3168 75.4393,28.3802C72.46,27.2686 59.5268,30.1466 57.9731,34.743C50.5002,41.2714 56.0251,61.7388 55.9144,69.3962C64.644,62.5558 64.8003,67.9608 68.3803,68.0649C69.0662,70.2793 68.341,75.2544 68.341,75.2544Z" style="fill:rgb(220,158,44);"/>
            <path d="M39.9917,71.0239C37.9327,71.2926 36.866,75.0666 38.9585,75.751C41.3172,76.5224 40.9067,76.6399 42.9243,75.3208C44.4599,74.3169 42.548,70.6903 39.9917,71.0239Z" style="fill:rgb(163,73,30);"/>
            <path d="M60.5,130.42L2.69501,97.6182L2.69501,31.8529L60.5,-0.949277L118.305,31.8529L118.305,97.6182L60.5,130.42ZM60.5,117.979L107.484,91.3169L107.484,38.1542L60.5,11.4925L13.5159,38.1542L13.5159,91.3169L60.5,117.979Z" style="fill:rgb(220,158,44);"/>
        </g>
    </g>
</svg>
